<svg xmlns="http://www.w3.org/2000/svg" version="1.1" xmlns:xlink="http://www.w3.org/1999/xlink" xmlns:svgjs="http://svgjs.dev/svgjs" width="128" height="128" viewBox="0 0 128 128"><g transform="matrix(0.8046875,0,0,0.8046875,12.760752631578946,12.703240684210527)"><svg viewBox="0 0 95 95" data-background-color="#ffffff" preserveAspectRatio="xMidYMid meet" height="128" width="128" xmlns="http://www.w3.org/2000/svg" xmlns:xlink="http://www.w3.org/1999/xlink"><g id="tight-bounds" transform="matrix(1,0,0,1,-0.24049999999999727,-0.18745499999999993)"><svg viewBox="0 0 95.481 95.37491" height="95.37491" width="95.481"><g><svg viewBox="0 0 95.481 95.37491" height="95.37491" width="95.481"><g><svg viewBox="0 0 95.481 95.37491" height="95.37491" width="95.481"><g id="textblocktransform"><svg viewBox="0 0 95.481 95.37491" height="95.37491" width="95.481" id="textblock"><g><svg viewBox="0 0 95.481 95.37491" height="95.37491" width="95.481"><g><svg viewBox="0 0 95.481 95.37491" height="95.37491" width="95.481"><g><svg xmlns="http://www.w3.org/2000/svg" xmlns:xlink="http://www.w3.org/1999/xlink" version="1.1" x="0" y="0" viewBox="5 5 90 89.9" style="enable-background:new 0 0 100 100;" xml:space="preserve" height="95.37491" width="95.481" class="icon-icon-0" data-fill-palette-color="accent" id="icon-0"><path d="M80.7 10.9c-2.1 0-4.3 0.8-5.9 2.5L74 14.2l-6.6-6.6C65.6 5.8 63.4 5 61.2 5 59 5 56.7 5.8 55 7.5c-0.8 0.8-1.4 1.7-1.8 2.7-1.7-1.6-3.9-2.4-6-2.4-2.2 0-4.5 0.8-6.2 2.5-1.7 1.7-2.6 4-2.5 6.2 0 2.2 0.8 4.5 2.5 6.2l11.2 11.2 1.1 1.1L34.9 53.3l-1.1-1.1L22.7 41c-1.7-1.7-4-2.6-6.2-2.5-2.2 0-4.5 0.8-6.2 2.5-1.7 1.7-2.5 3.9-2.5 6.2 0 2.2 0.8 4.3 2.4 6-1 0.4-1.9 1-2.7 1.8C5.8 56.7 5 59 5 61.2c0 2.2 0.8 4.5 2.5 6.2l6.6 6.6-0.8 0.8c-1.6 1.6-2.5 3.8-2.5 5.9 0 2.1 0.8 4.3 2.5 5.9 1.6 1.6 3.8 2.5 5.9 2.5 2.1 0 4.3-0.8 5.9-2.5l0.8-0.8 6.6 6.6c0 0 0 0 0 0 1.7 1.7 3.9 2.5 6.1 2.5 2.2 0 4.5-0.8 6.2-2.5 0.8-0.8 1.4-1.7 1.8-2.7 1.7 1.6 3.9 2.4 6 2.4 2.2 0 4.5-0.8 6.2-2.5 1.7-1.7 2.5-3.9 2.5-6.2 0-2.2-0.8-4.5-2.5-6.2L47.8 66.2c0 0 0 0 0 0l-1-1 18.4-18.4 1 1c0 0 0 0 0 0L77.3 59c1.7 1.7 3.9 2.5 6.2 2.5 2.2 0 4.5-0.8 6.2-2.5 1.7-1.7 2.5-3.9 2.5-6.2 0-2.2-0.8-4.3-2.4-6 1-0.4 1.9-1 2.7-1.8 1.7-1.7 2.5-3.9 2.5-6.2 0-2.2-0.8-4.4-2.5-6.1 0 0 0 0 0 0L85.8 26l0.8-0.8c1.6-1.6 2.5-3.8 2.5-5.9 0-2.1-0.8-4.3-2.5-5.9C85 11.7 82.9 10.9 80.7 10.9zM22.1 81.9l-0.8 0.8c-0.6 0.6-1.3 0.8-2 0.8-0.7 0-1.4-0.3-2-0.8v0c-0.6-0.6-0.8-1.2-0.8-2 0-0.7 0.3-1.4 0.8-2l0.8-0.8L22.1 81.9zM41 84.1c0.6 0.6 0.9 1.4 0.9 2.2 0 0.8-0.3 1.6-0.9 2.2-0.6 0.6-1.4 0.9-2.2 0.9-0.8 0-1.6-0.3-2.2-0.9L20.1 72l-8.6-8.6c-0.6-0.6-0.9-1.4-0.9-2.2 0-0.8 0.3-1.6 0.9-2.2 0.6-0.6 1.4-0.9 2.2-0.9 0.8 0 1.6 0.3 2.2 0.9L41 84.1zM29.9 56.2C29.9 56.2 29.9 56.2 29.9 56.2l10.9 10.9 3 3L55 81.3c0.6 0.6 0.9 1.4 0.9 2.2 0 0.8-0.3 1.6-0.9 2.2-0.6 0.6-1.4 0.9-2.2 0.9-0.8 0-1.6-0.3-2.2-0.9L19.9 55l-5.6-5.6c-0.6-0.6-0.9-1.4-0.9-2.2 0-0.8 0.3-1.6 0.9-2.2 0.6-0.6 1.4-0.9 2.2-0.9 0.8 0 1.6 0.3 2.2 0.9L29.9 56.2zM61.2 42.8L42.8 61.2l-3.9-3.9 18.4-18.4L61.2 42.8zM55 19.9l30.7 30.7c0.6 0.6 0.9 1.4 0.9 2.2 0 0.8-0.3 1.6-0.9 2.2-0.6 0.6-1.4 0.9-2.2 0.9-0.8 0-1.6-0.3-2.2-0.9L70.1 43.8l-3-3L56.2 29.9c0 0 0 0 0 0L45 18.7c-0.6-0.6-0.9-1.4-0.9-2.2 0-0.8 0.3-1.6 0.9-2.2 0.6-0.6 1.4-0.9 2.2-0.9 0.8 0 1.6 0.3 2.2 0.9L55 19.9zM72 20.1l16.5 16.5c0.6 0.6 0.9 1.4 0.9 2.2 0 0.8-0.3 1.6-0.9 2.2-0.6 0.6-1.4 0.9-2.2 0.9-0.8 0-1.6-0.3-2.2-0.9L59 15.9c-0.6-0.6-0.9-1.4-0.9-2.2 0-0.8 0.3-1.6 0.9-2.2 0.6-0.6 1.4-0.9 2.2-0.9 0.8 0 1.6 0.3 2.2 0.9L72 20.1zM83.5 19.3c0 0.7-0.3 1.4-0.8 2l-0.8 0.8-3.9-3.9 0.8-0.8c0.6-0.6 1.3-0.8 2-0.8 0.7 0 1.4 0.3 2 0.8h0C83.2 17.9 83.5 18.6 83.5 19.3z" fill="#399b1b" data-fill-palette-color="accent"></path></svg></g></svg></g></svg></g></svg></g></svg></g></svg></g><defs></defs></svg><rect width="95.481" height="95.37491" fill="none" stroke="none" visibility="hidden"></rect></g></svg></g></svg>