<svg xmlns="http://www.w3.org/2000/svg" version="1.1" xmlns:xlink="http://www.w3.org/1999/xlink" xmlns:svgjs="http://svgjs.dev/svgjs" width="1500" height="1500" viewBox="0 0 1500 1500"><rect width="1500" height="1500" fill="#000000"></rect><g transform="matrix(0.6666666666666666,0,0,0.6666666666666666,249.39393939393938,660.7766767742704)"><svg viewBox="0 0 396 71" data-background-color="#ffffff" preserveAspectRatio="xMidYMid meet" height="268" width="1500" xmlns="http://www.w3.org/2000/svg" xmlns:xlink="http://www.w3.org/1999/xlink"><g id="tight-bounds" transform="matrix(1,0,0,1,0.2400000000000091,-0.043716703208247054)"><svg viewBox="0 0 395.52 71.0874334064165" height="71.0874334064165" width="395.52"><g><svg viewBox="0 0 504.79759909632014 90.72806864249239" height="71.0874334064165" width="395.52"><g><rect width="2.958593103808415" height="65.97808175521334" x="403.2650081251529" y="12.374993443639525" fill="#ffffff" opacity="1" stroke-width="0" stroke="transparent" fill-opacity="1" class="rect-qz-0" data-fill-palette-color="primary" rx="1%" id="qz-0" data-palette-color="#399b1b"></rect></g><g transform="matrix(1,0,0,1,0,12.539118025120153)"><svg viewBox="0 0 395.52 65.64983259225208" height="65.64983259225208" width="395.52"><g id="textblocktransform"><svg viewBox="0 0 395.52 65.64983259225208" height="65.64983259225208" width="395.52" id="textblock"><g><svg viewBox="0 0 395.52 32.80726598702502" height="32.80726598702502" width="395.52"><g transform="matrix(1,0,0,1,0,0)"><svg width="395.52" viewBox="3.7 -35.4 431.02000000000004 35.8" height="32.80726598702502" data-palette-color="#399b1b"><g class="wordmark-text-0" data-fill-palette-color="primary" id="text-0"><path d="M3.7 0L3.7-35 27.75-35 27.75-30.8 8.45-30.8 8.45-19.15 25.9-19.15 25.9-14.95 8.45-14.95 8.45 0 3.7 0ZM33.45 0L33.45-35 38.2-35 38.2 0 33.45 0ZM54.7 0L54.7-30.85 43.6-30.85 43.6-35 70.55-35 70.55-30.85 59.45-30.85 59.45 0 54.7 0ZM75.44 0L75.44-35 79.84-35 98.34-7.65 98.34-35 102.99-35 102.99 0 98.64 0 80.09-27.25 80.09 0 75.44 0ZM114.19 0Q112.44 0 111.42-1 110.39-2 110.39-3.75L110.39-3.75 110.39-35 134.94-35 134.94-30.85 115.14-30.85 115.14-19.95 133.44-19.95 133.44-15.85 115.14-15.85 115.14-4.15 134.94-4.15 134.94 0 114.19 0ZM150.29 0.4Q145.44 0.4 142.54-2.5 139.64-5.4 139.64-10.3L139.64-10.3 144.29-10.3Q144.29-7.35 145.96-5.6 147.64-3.85 150.39-3.85L150.39-3.85 155.94-3.85Q158.69-3.85 160.34-5.03 161.99-6.2 161.99-8.15L161.99-8.15 161.99-10.85Q161.99-12.4 160.81-13.45 159.64-14.5 157.49-14.85L157.49-14.85 148.39-16.35Q144.39-17 142.21-19.1 140.04-21.2 140.04-24.35L140.04-24.35 140.04-27.1Q140.04-30.85 142.91-33.13 145.79-35.4 150.49-35.4L150.49-35.4 156.14-35.4Q159.09-35.4 161.36-34.18 163.64-32.95 164.89-30.73 166.14-28.5 166.14-25.6L166.14-25.6 161.44-25.6Q161.44-28.1 159.99-29.63 158.54-31.15 156.14-31.15L156.14-31.15 150.49-31.15Q147.94-31.15 146.36-30.03 144.79-28.9 144.79-26.95L144.79-26.95 144.79-24.7Q144.79-23.1 145.91-22.05 147.04-21 149.14-20.6L149.14-20.6 158.14-19.05Q162.29-18.35 164.51-16.32 166.74-14.3 166.74-11.25L166.74-11.25 166.74-8Q166.74-4.2 163.81-1.9 160.89 0.4 156.04 0.4L156.04 0.4 150.29 0.4ZM182.14 0.4Q177.29 0.4 174.39-2.5 171.49-5.4 171.49-10.3L171.49-10.3 176.14-10.3Q176.14-7.35 177.81-5.6 179.49-3.85 182.24-3.85L182.24-3.85 187.79-3.85Q190.54-3.85 192.19-5.03 193.84-6.2 193.84-8.15L193.84-8.15 193.84-10.85Q193.84-12.4 192.66-13.45 191.49-14.5 189.34-14.85L189.34-14.85 180.24-16.35Q176.24-17 174.06-19.1 171.89-21.2 171.89-24.35L171.89-24.35 171.89-27.1Q171.89-30.85 174.76-33.13 177.64-35.4 182.34-35.4L182.34-35.4 187.99-35.4Q190.94-35.4 193.21-34.18 195.49-32.95 196.74-30.73 197.99-28.5 197.99-25.6L197.99-25.6 193.29-25.6Q193.29-28.1 191.84-29.63 190.39-31.15 187.99-31.15L187.99-31.15 182.34-31.15Q179.79-31.15 178.21-30.03 176.64-28.9 176.64-26.95L176.64-26.95 176.64-24.7Q176.64-23.1 177.76-22.05 178.89-21 180.99-20.6L180.99-20.6 189.99-19.05Q194.14-18.35 196.36-16.32 198.59-14.3 198.59-11.25L198.59-11.25 198.59-8Q198.59-4.2 195.66-1.9 192.74 0.4 187.89 0.4L187.89 0.4 182.14 0.4Z" fill="#ffffff" data-fill-palette-color="primary"></path><path d="M224.34 0L224.34-30.85 213.24-30.85 213.24-35 240.19-35 240.19-30.85 229.09-30.85 229.09 0 224.34 0ZM245.09 0L245.09-35 262.64-35Q266.68-35 269.16-32.73 271.64-30.45 271.64-26.75L271.64-26.75 271.64-23.15Q271.64-20.55 270.01-18.55 268.39-16.55 265.59-15.65L265.59-15.65 265.59-15.6Q268.54-13.85 269.99-9.2L269.99-9.2 272.74 0 267.84 0 265.14-9Q264.43-11.35 262.91-12.7 261.39-14.05 259.43-14.05L259.43-14.05 249.84-14.05 249.84 0 245.09 0ZM249.84-18.25L261.34-18.25Q263.84-18.25 265.36-19.6 266.89-20.95 266.89-23.15L266.89-23.15 266.89-26.8Q266.89-28.6 265.68-29.7 264.49-30.8 262.54-30.8L262.54-30.8 249.84-30.8 249.84-18.25ZM301.53 0L298.08-9.2 283.48-9.2 280.08 0 275.13 0 288.68-35 290.83-35Q292.98-35 293.88-32.65L293.88-32.65 306.43 0 301.53 0ZM290.78-29L284.88-13.2 296.68-13.2 290.83-29 290.78-29ZM321.78 0.4Q318.28 0.4 315.58-1.2 312.88-2.8 311.41-5.73 309.93-8.65 309.93-12.5L309.93-12.5 309.93-22.5Q309.93-26.35 311.43-29.28 312.93-32.2 315.66-33.8 318.38-35.4 321.98-35.4L321.98-35.4 327.28-35.4Q330.68-35.4 333.31-33.93 335.93-32.45 337.36-29.8 338.78-27.15 338.78-23.7L338.78-23.7 334.13-23.7Q334.13-27.05 332.26-29.1 330.38-31.15 327.28-31.15L327.28-31.15 321.98-31.15Q318.73-31.15 316.71-28.75 314.68-26.35 314.68-22.4L314.68-22.4 314.68-12.6Q314.68-8.65 316.63-6.25 318.58-3.85 321.78-3.85L321.78-3.85 327.18-3.85Q330.38-3.85 332.31-6.13 334.23-8.4 334.23-12.1L334.23-12.1 338.88-12.1Q338.88-8.4 337.43-5.55 335.98-2.7 333.33-1.15 330.68 0.4 327.18 0.4L327.18 0.4 321.78 0.4ZM371.93 0L366.03 0 353.18-16.1 349.13-11.75 349.13 0 344.38 0 344.38-35 349.13-35 349.13-17.75 365.13-35 371.03-35 356.43-19.5 371.93 0ZM380.43 0Q378.68 0 377.65-1 376.63-2 376.63-3.75L376.63-3.75 376.63-35 401.18-35 401.18-30.85 381.38-30.85 381.38-19.95 399.68-19.95 399.68-15.85 381.38-15.85 381.38-4.15 401.18-4.15 401.18 0 380.43 0ZM407.07 0L407.07-35 424.62-35Q428.67-35 431.15-32.73 433.62-30.45 433.62-26.75L433.62-26.75 433.62-23.15Q433.62-20.55 432-18.55 430.37-16.55 427.57-15.65L427.57-15.65 427.57-15.6Q430.52-13.85 431.97-9.2L431.97-9.2 434.72 0 429.82 0 427.12-9Q426.42-11.35 424.9-12.7 423.37-14.05 421.42-14.05L421.42-14.05 411.82-14.05 411.82 0 407.07 0ZM411.82-18.25L423.32-18.25Q425.82-18.25 427.35-19.6 428.87-20.95 428.87-23.15L428.87-23.15 428.87-26.8Q428.87-28.6 427.67-29.7 426.47-30.8 424.52-30.8L424.52-30.8 411.82-30.8 411.82-18.25Z" fill="#ffffff" data-fill-palette-color="secondary"></path></g></svg></g></svg></g><g transform="matrix(1,0,0,1,260.16550409971086,40.55227411217794)"><svg viewBox="0 0 135.35449590028912 25.09755848007414" height="25.09755848007414" width="135.35449590028912"><g transform="matrix(1,0,0,1,0,0)"><svg width="135.35449590028912" viewBox="1.6 -35 243.48000000000002 45.15" height="25.09755848007414" data-palette-color="#2dc48c"><path d="M30.75-24.95L34.55-24.95 29.15-2.9Q28.75-1.4 28.05-0.7 27.35 0 26.15 0L26.15 0 24.45 0 18.2-18.85 11.75 0 10.05 0Q8.9 0 8.15-0.7 7.4-1.4 7.05-2.9L7.05-2.9 1.6-24.95 5.4-24.95 10.05-4 16.8-24.25 18.1-24.25Q19.55-24.25 20.05-22.65L20.05-22.65 26.15-4.15 30.75-24.95ZM47.65 0.4Q43.45 0.4 40.9-2.08 38.35-4.55 38.35-8.65L38.35-8.65 38.35-15.8Q38.35-20.1 40.9-22.73 43.45-25.35 47.65-25.35L47.65-25.35 51.75-25.35Q55.75-25.35 58.2-22.8 60.65-20.25 60.65-16.05L60.65-16.05 60.65-11.65 41.95-11.65 41.95-8.65Q41.95-6.05 43.52-4.42 45.1-2.8 47.65-2.8L47.65-2.8 51.45-2.8Q53.95-2.8 55.5-4.17 57.05-5.55 57.05-7.85L57.05-7.85 60.55-7.85Q60.55-4.15 58.05-1.88 55.55 0.4 51.45 0.4L51.45 0.4 47.65 0.4ZM41.95-14.75L57.05-14.75 57.05-16.05Q57.05-18.8 55.6-20.48 54.15-22.15 51.75-22.15L51.75-22.15 47.65-22.15Q45.1-22.15 43.52-20.4 41.95-18.65 41.95-15.8L41.95-15.8 41.95-14.75ZM88.04 10.15Q84.74 10.15 82.59 8.38 80.44 6.6 80.19 3.7L80.19 3.7 83.79 3.7Q83.99 5.2 85.17 6.13 86.34 7.05 88.04 7.05L88.04 7.05 92.19 7.05Q94.79 7.05 96.22 5.33 97.64 3.6 97.64 0.5L97.64 0.5 97.64-3.35Q96.54-1.85 94.77-0.93 92.99 0 91.34 0L91.34 0 87.69 0Q85.14 0 83.14-1.2 81.14-2.4 80.04-4.55 78.94-6.7 78.94-9.55L78.94-9.55 78.94-15.4Q78.94-19.85 81.52-22.6 84.09-25.35 88.29-25.35L88.29-25.35 91.79-25.35Q93.39-25.35 95.09-24.45 96.79-23.55 97.74-22.15L97.74-22.15 97.74-24.95 101.24-24.95 101.24 0.5Q101.24 5.05 98.84 7.6 96.44 10.15 92.19 10.15L92.19 10.15 88.04 10.15ZM87.79-3.2L91.34-3.2Q93.84-3.2 95.62-5.18 97.39-7.15 97.64-10.2L97.64-10.2 97.64-16.35Q97.44-18.9 95.77-20.53 94.09-22.15 91.79-22.15L91.79-22.15 88.39-22.15Q85.74-22.15 84.14-20.3 82.54-18.45 82.54-15.4L82.54-15.4 82.54-9.55Q82.54-6.75 84.02-4.98 85.49-3.2 87.79-3.2L87.79-3.2ZM117.14 0.4Q112.94 0.4 110.39-2.2 107.84-4.8 107.84-9.05L107.84-9.05 107.84-15.9Q107.84-20.15 110.42-22.75 112.99-25.35 117.24-25.35L117.24-25.35 121.34-25.35Q125.59-25.35 128.17-22.75 130.74-20.15 130.74-15.9L130.74-15.9 130.74-9.05Q130.74-4.8 128.14-2.2 125.54 0.4 121.24 0.4L121.24 0.4 117.14 0.4ZM117.14-2.8L121.24-2.8Q123.94-2.8 125.54-4.53 127.14-6.25 127.14-9.05L127.14-9.05 127.14-15.9Q127.14-18.7 125.54-20.43 123.94-22.15 121.34-22.15L121.34-22.15 117.24-22.15Q114.64-22.15 113.04-20.43 111.44-18.7 111.44-15.9L111.44-15.9 111.44-9.05Q111.44-6.2 112.99-4.5 114.54-2.8 117.14-2.8L117.14-2.8ZM150.34 0L150.34-35 153.94-35 153.94-21.5Q155.09-23.25 156.89-24.3 158.69-25.35 160.54-25.35L160.54-25.35 164.04-25.35Q167.49-25.35 169.61-23 171.74-20.65 171.74-16.85L171.74-16.85 171.74 0 168.14 0 168.14-16.95Q168.14-19.25 166.99-20.7 165.84-22.15 163.94-22.15L163.94-22.15 160.64-22.15Q158.29-22.15 156.36-20.33 154.44-18.5 153.94-15.65L153.94-15.65 153.94 0 150.34 0ZM186.23 0.4Q182.58 0.4 180.41-1.5 178.23-3.4 178.23-6.6L178.23-6.6 178.23-8.2Q178.23-11.35 180.48-13.25 182.73-15.15 186.43-15.15L186.43-15.15 189.63-15.15Q191.28-15.15 193.03-14.65 194.78-14.15 196.03-13.3L196.03-13.3 196.03-17.45Q196.03-19.55 194.73-20.88 193.43-22.2 191.28-22.2L191.28-22.2 187.28-22.2Q185.13-22.2 183.83-21.2 182.53-20.2 182.53-18.55L182.53-18.55 178.93-18.55Q178.93-21.6 181.23-23.48 183.53-25.35 187.28-25.35L187.28-25.35 191.28-25.35Q194.98-25.35 197.26-23.18 199.53-21 199.53-17.45L199.53-17.45 199.53 0 196.13 0 196.13-3.5Q194.98-1.7 193.11-0.65 191.23 0.4 189.23 0.4L189.23 0.4 186.23 0.4ZM186.23-2.75L189.33-2.75Q191.68-2.75 193.53-4.2 195.38-5.65 196.03-8.05L196.03-8.05 196.03-9.9Q195.03-10.85 193.26-11.43 191.48-12 189.63-12L189.63-12 186.43-12Q184.38-12 183.11-10.95 181.83-9.9 181.83-8.2L181.83-8.2 181.83-6.6Q181.83-4.85 183.03-3.8 184.23-2.75 186.23-2.75L186.23-2.75ZM206.83 0L206.83-24.95 210.33-24.95 210.33-21.1Q211.33-22.85 213.36-23.95 215.38-25.05 217.58-25.05L217.58-25.05 219.78-25.05 219.78-21.8 217.58-21.8Q214.38-21.8 212.41-19.78 210.43-17.75 210.43-14.4L210.43-14.4 210.43 0 206.83 0ZM231.53 0.4Q228.98 0.4 226.98-0.8 224.98-2 223.88-4.15 222.78-6.3 222.78-9.15L222.78-9.15 222.78-15.15Q222.78-18.15 223.93-20.48 225.08-22.8 227.18-24.08 229.28-25.35 231.98-25.35L231.98-25.35 235.68-25.35Q237.38-25.35 238.95-24.55 240.53-23.75 241.48-22.35L241.48-22.35 241.48-35 245.08-35 245.08 0 241.58 0 241.58-3.7Q240.43-1.85 238.58-0.73 236.73 0.4 234.98 0.4L234.98 0.4 231.53 0.4ZM231.63-2.8L234.88-2.8Q236.48-2.8 237.98-3.83 239.48-4.85 240.43-6.5 241.38-8.15 241.48-9.9L241.48-9.9 241.48-16.2Q241.13-18.85 239.5-20.5 237.88-22.15 235.58-22.15L235.58-22.15 232.08-22.15Q229.53-22.15 227.95-20.23 226.38-18.3 226.38-15.15L226.38-15.15 226.38-9.15Q226.38-6.35 227.85-4.58 229.33-2.8 231.63-2.8L231.63-2.8Z" opacity="1" transform="matrix(1,0,0,1,0,0)" fill="#ffffff" class="slogan-text-1" data-fill-palette-color="secondary" id="text-1"></path></svg></g></svg></g></svg></g></svg></g><g transform="matrix(1,0,0,1,413.9686093541143,0)"><svg viewBox="0 0 90.82898974220595 90.72806864249239" height="90.72806864249239" width="90.82898974220595"><g><svg xmlns="http://www.w3.org/2000/svg" xmlns:xlink="http://www.w3.org/1999/xlink" version="1.1" x="0" y="0" viewBox="5 5 90 89.9" style="enable-background:new 0 0 100 100;" xml:space="preserve" height="90.72806864249239" width="90.82898974220595" class="icon-icon-0" data-fill-palette-color="accent" id="icon-0"><path d="M80.7 10.9c-2.1 0-4.3 0.8-5.9 2.5L74 14.2l-6.6-6.6C65.6 5.8 63.4 5 61.2 5 59 5 56.7 5.8 55 7.5c-0.8 0.8-1.4 1.7-1.8 2.7-1.7-1.6-3.9-2.4-6-2.4-2.2 0-4.5 0.8-6.2 2.5-1.7 1.7-2.6 4-2.5 6.2 0 2.2 0.8 4.5 2.5 6.2l11.2 11.2 1.1 1.1L34.9 53.3l-1.1-1.1L22.7 41c-1.7-1.7-4-2.6-6.2-2.5-2.2 0-4.5 0.8-6.2 2.5-1.7 1.7-2.5 3.9-2.5 6.2 0 2.2 0.8 4.3 2.4 6-1 0.4-1.9 1-2.7 1.8C5.8 56.7 5 59 5 61.2c0 2.2 0.8 4.5 2.5 6.2l6.6 6.6-0.8 0.8c-1.6 1.6-2.5 3.8-2.5 5.9 0 2.1 0.8 4.3 2.5 5.9 1.6 1.6 3.8 2.5 5.9 2.5 2.1 0 4.3-0.8 5.9-2.5l0.8-0.8 6.6 6.6c0 0 0 0 0 0 1.7 1.7 3.9 2.5 6.1 2.5 2.2 0 4.5-0.8 6.2-2.5 0.8-0.8 1.4-1.7 1.8-2.7 1.7 1.6 3.9 2.4 6 2.4 2.2 0 4.5-0.8 6.2-2.5 1.7-1.7 2.5-3.9 2.5-6.2 0-2.2-0.8-4.5-2.5-6.2L47.8 66.2c0 0 0 0 0 0l-1-1 18.4-18.4 1 1c0 0 0 0 0 0L77.3 59c1.7 1.7 3.9 2.5 6.2 2.5 2.2 0 4.5-0.8 6.2-2.5 1.7-1.7 2.5-3.9 2.5-6.2 0-2.2-0.8-4.3-2.4-6 1-0.4 1.9-1 2.7-1.8 1.7-1.7 2.5-3.9 2.5-6.2 0-2.2-0.8-4.4-2.5-6.1 0 0 0 0 0 0L85.8 26l0.8-0.8c1.6-1.6 2.5-3.8 2.5-5.9 0-2.1-0.8-4.3-2.5-5.9C85 11.7 82.9 10.9 80.7 10.9zM22.1 81.9l-0.8 0.8c-0.6 0.6-1.3 0.8-2 0.8-0.7 0-1.4-0.3-2-0.8v0c-0.6-0.6-0.8-1.2-0.8-2 0-0.7 0.3-1.4 0.8-2l0.8-0.8L22.1 81.9zM41 84.1c0.6 0.6 0.9 1.4 0.9 2.2 0 0.8-0.3 1.6-0.9 2.2-0.6 0.6-1.4 0.9-2.2 0.9-0.8 0-1.6-0.3-2.2-0.9L20.1 72l-8.6-8.6c-0.6-0.6-0.9-1.4-0.9-2.2 0-0.8 0.3-1.6 0.9-2.2 0.6-0.6 1.4-0.9 2.2-0.9 0.8 0 1.6 0.3 2.2 0.9L41 84.1zM29.9 56.2C29.9 56.2 29.9 56.2 29.9 56.2l10.9 10.9 3 3L55 81.3c0.6 0.6 0.9 1.4 0.9 2.2 0 0.8-0.3 1.6-0.9 2.2-0.6 0.6-1.4 0.9-2.2 0.9-0.8 0-1.6-0.3-2.2-0.9L19.9 55l-5.6-5.6c-0.6-0.6-0.9-1.4-0.9-2.2 0-0.8 0.3-1.6 0.9-2.2 0.6-0.6 1.4-0.9 2.2-0.9 0.8 0 1.6 0.3 2.2 0.9L29.9 56.2zM61.2 42.8L42.8 61.2l-3.9-3.9 18.4-18.4L61.2 42.8zM55 19.9l30.7 30.7c0.6 0.6 0.9 1.4 0.9 2.2 0 0.8-0.3 1.6-0.9 2.2-0.6 0.6-1.4 0.9-2.2 0.9-0.8 0-1.6-0.3-2.2-0.9L70.1 43.8l-3-3L56.2 29.9c0 0 0 0 0 0L45 18.7c-0.6-0.6-0.9-1.4-0.9-2.2 0-0.8 0.3-1.6 0.9-2.2 0.6-0.6 1.4-0.9 2.2-0.9 0.8 0 1.6 0.3 2.2 0.9L55 19.9zM72 20.1l16.5 16.5c0.6 0.6 0.9 1.4 0.9 2.2 0 0.8-0.3 1.6-0.9 2.2-0.6 0.6-1.4 0.9-2.2 0.9-0.8 0-1.6-0.3-2.2-0.9L59 15.9c-0.6-0.6-0.9-1.4-0.9-2.2 0-0.8 0.3-1.6 0.9-2.2 0.6-0.6 1.4-0.9 2.2-0.9 0.8 0 1.6 0.3 2.2 0.9L72 20.1zM83.5 19.3c0 0.7-0.3 1.4-0.8 2l-0.8 0.8-3.9-3.9 0.8-0.8c0.6-0.6 1.3-0.8 2-0.8 0.7 0 1.4 0.3 2 0.8h0C83.2 17.9 83.5 18.6 83.5 19.3z" fill="#ffffff" data-fill-palette-color="accent"></path></svg></g></svg></g></svg></g><defs></defs></svg><rect width="395.52" height="71.0874334064165" fill="none" stroke="none" visibility="hidden"></rect></g></svg></g></svg>